<svg width="14" height="14" viewBox="0 0 14 14" fill="none" xmlns="http://www.w3.org/2000/svg">
<path fill-rule="evenodd" clip-rule="evenodd" d="M0.25 0.75C0.25 0.473858 0.473858 0.25 0.75 0.25H1.3406C1.94065 0.25 2.48295 0.607596 2.71932 1.15912L3.0797 2H11.8223C12.8632 2 13.5877 3.03434 13.232 4.01261L11.9593 7.51262C11.7437 8.1054 11.1803 8.5 10.5496 8.5H5.00461L4.3094 9.45591C4.06905 9.7864 4.30513 10.25 4.71377 10.25H12.5C12.7761 10.25 13 10.4739 13 10.75C13 11.0261 12.7761 11.25 12.5 11.25H4.71377C3.48784 11.25 2.77961 9.8592 3.50067 8.86774L4.18923 7.92097L2.2849 2.68406L1.80018 1.55304C1.72139 1.3692 1.54062 1.25 1.3406 1.25H0.75C0.473858 1.25 0.25 1.02614 0.25 0.75ZM3.46385 3L5.10021 7.5H10.5496C10.7598 7.5 10.9476 7.36847 11.0195 7.17087L12.2922 3.67087C12.4108 3.34478 12.1693 3 11.8223 3H3.46385ZM5 13C5 13.5523 4.55228 14 4 14C3.44772 14 3 13.5523 3 13C3 12.4477 3.44772 12 4 12C4.55228 12 5 12.4477 5 13ZM11 14C11.5523 14 12 13.5523 12 13C12 12.4477 11.5523 12 11 12C10.4477 12 10 12.4477 10 13C10 13.5523 10.4477 14 11 14Z" fill="#344054"/>
</svg>
