<svg width="24" height="24" viewBox="0 0 24 24" fill="none" xmlns="http://www.w3.org/2000/svg">
<path fill-rule="evenodd" clip-rule="evenodd" d="M7.10355 6.39645C6.90829 6.20118 6.59171 6.20118 6.39645 6.39645C6.20118 6.59171 6.20118 6.90829 6.39645 7.10355L11.2929 12L6.39645 16.8964C6.20118 17.0917 6.20118 17.4083 6.39645 17.6036C6.59171 17.7988 6.90829 17.7988 7.10355 17.6036L12 12.7071L16.8964 17.6036C17.0917 17.7988 17.4083 17.7988 17.6036 17.6036C17.7988 17.4083 17.7988 17.0917 17.6036 16.8964L12.7071 12L17.6036 7.10355C17.7988 6.90829 17.7988 6.59171 17.6036 6.39645C17.4083 6.20118 17.0917 6.20119 16.8964 6.39645L12 11.2929L7.10355 6.39645Z" fill="#101828"/>
</svg>
