<svg width="14" height="14" viewBox="0 0 14 14" fill="none" xmlns="http://www.w3.org/2000/svg">
<mask id="path-1-inside-1_42_1296" fill="white">
<path fill-rule="evenodd" clip-rule="evenodd" d="M12.8284 2.07843C11.2663 0.51633 8.73367 0.51633 7.17157 2.07843L6.99997 2.25003L6.8284 2.07846C5.2663 0.51636 2.73364 0.516361 1.17154 2.07846C-0.390555 3.64055 -0.390554 6.17321 1.17154 7.73531L1.34312 7.90688L1.33794 7.91206L6.28769 12.8618C6.48353 13.0576 6.74038 13.1553 6.99705 13.1547C7.25567 13.1568 7.51495 13.0592 7.71228 12.8618L12.662 7.91209L12.6568 7.90689L12.8284 7.73528C14.3905 6.17318 14.3905 3.64052 12.8284 2.07843Z"/>
</mask>
<path d="M6.99997 2.25003L6.29286 2.95714L6.99997 3.66424L7.70708 2.95714L6.99997 2.25003ZM1.34312 7.90688L2.05022 8.61399L2.75733 7.90688L2.05022 7.19978L1.34312 7.90688ZM1.33794 7.91206L0.630835 7.20495L-0.0762713 7.91206L0.630835 8.61916L1.33794 7.91206ZM6.28769 12.8618L5.58058 13.5689L6.28769 12.8618ZM6.99705 13.1547L7.00512 12.1547L6.99481 12.1547L6.99705 13.1547ZM12.662 7.91209L13.3691 8.6192L14.0762 7.91209L13.3691 7.20498L12.662 7.91209ZM12.6568 7.90689L11.9497 7.19978L11.2426 7.90689L11.9497 8.61399L12.6568 7.90689ZM12.8284 7.73528L12.1213 7.02817L12.8284 7.73528ZM7.87868 2.78553C9.05025 1.61396 10.9497 1.61396 12.1213 2.78553L13.5355 1.37132C11.5829 -0.581301 8.41709 -0.581301 6.46447 1.37132L7.87868 2.78553ZM7.70708 2.95714L7.87868 2.78553L6.46447 1.37132L6.29286 1.54292L7.70708 2.95714ZM6.12129 2.78556L6.29286 2.95714L7.70708 1.54292L7.5355 1.37135L6.12129 2.78556ZM1.87865 2.78556C3.05022 1.61399 4.94972 1.61399 6.12129 2.78556L7.5355 1.37135C5.58288 -0.581271 2.41706 -0.581271 0.464436 1.37135L1.87865 2.78556ZM1.87865 7.0282C0.707077 5.85663 0.707076 3.95714 1.87865 2.78556L0.464436 1.37135C-1.48819 3.32397 -1.48818 6.4898 0.464436 8.44242L1.87865 7.0282ZM2.05022 7.19978L1.87865 7.0282L0.464436 8.44242L0.636009 8.61399L2.05022 7.19978ZM2.04505 8.61916L2.05022 8.61399L0.636009 7.19978L0.630835 7.20495L2.04505 8.61916ZM6.9948 12.1547L2.04505 7.20495L0.630835 8.61916L5.58058 13.5689L6.9948 12.1547ZM6.99481 12.1547H6.9948L5.58058 13.5689C5.97207 13.9604 6.48752 14.1558 6.9993 14.1547L6.99481 12.1547ZM7.00517 12.1547L7.00512 12.1547L6.98899 14.1547C7.50458 14.1588 8.02489 13.9634 8.41939 13.5689L7.00517 12.1547ZM11.9549 7.20498L7.00517 12.1547L8.41939 13.5689L13.3691 8.6192L11.9549 7.20498ZM11.9497 8.61399L11.9549 8.6192L13.3691 7.20498L13.3639 7.19978L11.9497 8.61399ZM12.1213 7.02817L11.9497 7.19978L13.3639 8.61399L13.5355 8.44239L12.1213 7.02817ZM12.1213 2.78553C13.2929 3.95711 13.2929 5.8566 12.1213 7.02817L13.5355 8.44239C15.4882 6.48977 15.4882 3.32394 13.5355 1.37132L12.1213 2.78553Z" fill="#344054" mask="url(#path-1-inside-1_42_1296)"/>
</svg>
