<svg width="120" height="40" viewBox="0 0 120 40" fill="none" xmlns="http://www.w3.org/2000/svg">
<path d="M34.7302 0C34.9102 0.82 35.0902 1.63 35.2702 2.45C31.0002 2.45 26.7202 2.45 22.4502 2.45C26.5402 1.63 30.6402 0.82 34.7302 0.01V0Z" fill="#D12026"/>
<path d="M2.57 6.39001C2.57 10.46 2.57 14.54 2.57 18.61C1.7 14.71 0.86 10.8 0 6.90001C0.86 6.73001 1.71 6.56001 2.57 6.39001Z" fill="#D12026"/>
<path d="M39.4104 21.37C39.4704 21.68 39.5304 21.98 39.6004 22.28C40.3904 25.89 41.1804 29.49 41.9704 33.1C41.1104 33.27 40.2604 33.44 39.4004 33.61C39.4004 29.7 39.4004 25.79 39.4004 21.89C39.4004 21.72 39.4004 21.55 39.4104 21.37Z" fill="#D12026"/>
<path d="M3.25 3.09C3.25 14.36 3.25 25.63 3.25 36.9C15.08 36.9 26.9 36.9 38.73 36.9C38.73 25.63 38.73 14.36 38.73 3.09C26.9 3.09 15.08 3.09 3.25 3.09ZM23 7.17C23.22 6.9 23.57 6.76 23.93 6.77C25.31 6.77 26.72 6.77 28.1 6.77C28.35 6.77 28.62 6.75 28.86 6.81C29.24 6.91 29.55 7.22 29.63 7.6C29.71 7.95 29.6 8.33 29.33 8.58C29.11 8.79 28.82 8.9 28.51 8.9C26.96 8.9 25.41 8.9 23.86 8.9C23.46 8.9 23.08 8.68 22.89 8.33C22.69 7.96 22.73 7.5 23 7.18V7.17ZM7.74 6.77C8.77 6.77 9.8 6.77 10.83 6.77C12.97 9.23 15.1 11.69 17.24 14.15C17.24 11.69 17.24 9.23 17.24 6.76C18.27 6.76 19.29 6.76 20.32 6.76C20.32 10.71 20.32 14.66 20.32 18.62C19.29 18.62 18.26 18.62 17.23 18.62C15.1 16.25 12.96 13.89 10.83 11.53C10.83 13.89 10.83 16.26 10.83 18.62C9.8 18.62 8.77 18.62 7.75 18.62C7.75 14.67 7.75 10.72 7.75 6.77H7.74ZM8.8 21.37C14.04 21.37 19.31 21.37 24.55 21.37C24.95 21.37 25.32 21.56 25.52 21.88C25.77 22.26 25.73 22.77 25.42 23.12C25.2 23.37 24.88 23.5 24.54 23.5C19.48 23.5 14.41 23.5 9.35 23.5C9.12 23.5 8.88 23.51 8.65 23.48C8.19 23.41 7.82 23.05 7.74 22.62C7.62 22 8.13 21.4 8.79 21.38L8.8 21.37ZM28.92 18.63C27.23 18.63 25.54 18.63 23.85 18.63C23.35 18.63 22.9 18.29 22.78 17.82C22.66 17.36 22.89 16.86 23.33 16.63C23.65 16.46 23.98 16.51 24.33 16.5C25.86 16.5 27.38 16.5 28.91 16.5C29.3 16.49 29.67 16.67 29.89 16.98C30.14 17.34 30.13 17.82 29.87 18.17C29.65 18.47 29.29 18.64 28.91 18.62L28.92 18.63ZM29.17 28.01C28.95 28.25 28.63 28.37 28.3 28.36C26.15 28.36 24 28.36 21.84 28.36C21.31 28.37 20.83 28 20.73 27.5C20.63 27.04 20.88 26.56 21.32 26.35C21.63 26.19 21.99 26.24 22.32 26.24C24.17 26.24 26.02 26.24 27.87 26.24C28.08 26.24 28.29 26.24 28.5 26.25C28.9 26.3 29.24 26.57 29.38 26.93C29.52 27.29 29.44 27.72 29.16 28.01H29.17ZM18.94 27.92C18.73 28.2 18.39 28.37 18.03 28.37C15.09 28.37 12.15 28.37 9.22 28.37C8.92 28.37 8.64 28.4 8.37 28.26C7.9 28.05 7.65 27.53 7.78 27.05C7.9 26.58 8.36 26.23 8.88 26.24C11.77 26.24 14.66 26.24 17.55 26.24C17.76 26.24 17.97 26.24 18.18 26.24C18.56 26.28 18.9 26.52 19.06 26.86C19.22 27.2 19.18 27.61 18.95 27.91L18.94 27.92ZM13.81 32.76C13.61 33.05 13.26 33.24 12.89 33.24C11.55 33.24 10.21 33.24 8.87 33.24C8.48 33.24 8.11 33.06 7.91 32.74C7.68 32.39 7.69 31.92 7.93 31.58C8.14 31.28 8.49 31.11 8.87 31.11C10.05 31.11 11.23 31.11 12.41 31.11C12.61 31.11 12.81 31.11 13.01 31.11C13.39 31.14 13.74 31.38 13.9 31.71C14.07 32.04 14.04 32.45 13.82 32.75L13.81 32.76ZM32.72 32.87C32.51 33.11 32.22 33.24 31.89 33.24C26.8 33.24 21.71 33.24 16.62 33.24C16.11 33.24 15.67 32.88 15.56 32.42C15.45 31.95 15.68 31.45 16.14 31.23C16.44 31.08 16.77 31.13 17.11 31.12H31.4C31.62 31.12 31.83 31.11 32.05 31.13C32.45 31.18 32.79 31.47 32.92 31.83C33.05 32.18 32.97 32.59 32.72 32.87ZM33.06 13.42C32.84 13.66 32.51 13.79 32.17 13.78C29.56 13.78 26.94 13.78 24.33 13.78C24.12 13.78 23.91 13.78 23.7 13.77C23.3 13.72 22.95 13.45 22.81 13.1C22.66 12.73 22.75 12.3 23.03 12.01C23.26 11.77 23.58 11.65 23.91 11.66C26.68 11.66 29.47 11.66 32.24 11.66C32.67 11.66 33.06 11.92 33.24 12.29C33.42 12.66 33.34 13.12 33.06 13.42Z" fill="#D12026"/>
<path d="M6.70996 37.55C10.99 37.55 15.26 37.55 19.54 37.55C15.45 38.37 11.35 39.18 7.24996 40C7.07996 39.25 6.91996 38.49 6.75996 37.74C6.74996 37.68 6.72996 37.62 6.71996 37.55H6.70996Z" fill="#D12026"/>
<path d="M62.66 4.92999V18.29H59.3L52.32 10.3V18.29H48.96V4.92999H52.32L59.3 13.25V4.92999H62.66Z" fill="#D12026"/>
<path d="M68.7799 7.79999V10.18H74.4499V13.04H68.7799V15.42H75.9599V18.28H65.4199V4.92999H75.9599V7.80999H68.7799V7.79999Z" fill="#D12026"/>
<path d="M101.68 4.92999L95.6695 18.29H91.9595L89.3495 10.87L86.7395 18.29H83.0295L77.0195 4.92999H80.8595L84.7195 13.11L87.6895 4.92999H91.0095L94.0095 13.11L97.8495 4.92999H101.69H101.68Z" fill="#D12026"/>
<path d="M101.68 14.15H105.32C105.32 14.15 105.47 15.98 107.95 15.98C109.29 15.98 110.49 15.22 110.49 14.4C110.49 12.69 107.24 12.57 106.31 12.39C104.67 12.08 101.89 11.38 101.89 8.86001C101.89 6.50001 104.54 4.57001 107.77 4.57001C111.71 4.57001 113.65 6.48001 113.65 8.27001H110.18C110.18 7.94001 109.6 7.24001 107.77 7.24001C106.54 7.24001 105.53 7.96001 105.53 8.86001C105.53 9.95001 107.71 9.95001 108.48 10.07C110.44 10.42 114.13 10.87 114.13 14.41C114.13 16.71 111.28 18.64 107.94 18.64C103.65 18.64 101.67 15.97 101.67 14.16L101.68 14.15Z" fill="#D12026"/>
<path d="M56.3699 35.25L54.0599 31.92H51.5999V35.25H48.1699V21.89H54.9799C57.8499 21.89 59.9999 24.23 59.9999 27.15C59.9999 29.08 58.9899 30.46 57.4999 31.22L60.5799 35.25H56.3599H56.3699ZM51.6099 28.98H54.4599C55.5999 28.98 56.5499 28.26 56.5499 27.15C56.5499 26.04 55.6199 25.18 54.4799 25.18H51.6099V28.98Z" fill="#D12026"/>
<path d="M66.5202 24.77V27.15H72.1902V30.01H66.5202V32.39H73.7002V35.25H63.1602V21.89H73.7002V24.77H66.5202Z" fill="#D12026"/>
<path d="M86.9304 33.42H80.1404L79.1904 35.25H75.4004L82.3604 21.89H84.9004L91.6004 35.25H87.8704L86.9204 33.42H86.9304ZM85.6204 30.81L83.5304 26.52L81.5504 30.81H85.6204Z" fill="#D12026"/>
<path d="M104.46 32.74C103.12 34.49 100.95 35.6 98.5097 35.6C94.4397 35.6 91.1396 32.46 91.1396 28.57C91.1396 24.68 94.4397 21.52 98.5097 21.52C100.95 21.52 103.12 22.65 104.46 24.4L101.92 25.96C100.97 25.14 99.9197 24.6 98.5097 24.6C96.2297 24.6 94.3697 26.39 94.3697 28.57C94.3697 30.75 96.2197 32.52 98.5097 32.52C99.9097 32.52 100.79 32.09 101.92 31.18L104.46 32.74Z" fill="#D12026"/>
<path d="M120 21.89V35.25H116.64V30.36H110.52V35.25H107.16V21.89H110.52V27.48H116.64V21.89H120Z" fill="#D12026"/>
</svg>
