<svg width="155" height="40" viewBox="0 0 155 40" fill="none" xmlns="http://www.w3.org/2000/svg">
<g clip-path="url(#clip0_0_7460)">
<path fill-rule="evenodd" clip-rule="evenodd" d="M6.92028 40L6.38127 37.4263H19.2894L6.92028 40ZM6.16413 36.3815L3.62746 24.2467V6.14895L15.7922 3.61853H33.9372L36.4739 15.7559V33.8536L24.3091 36.384H6.16413V36.3815ZM2.5801 19.2393L0 6.90323L2.5801 6.36555V19.2393ZM20.8119 2.57374L33.1785 0L33.7175 2.57374H20.8094H20.8119ZM37.5213 20.7607L40.1014 33.0993L37.5213 33.637V20.7632V20.7607Z" fill="#D01517"/>
<path d="M36.9973 3.09613H3.10352V36.9064H36.9973V3.09613Z" fill="#D01517"/>
<path fill-rule="evenodd" clip-rule="evenodd" d="M33.3421 6.74011V19.1527H11.0306V33.2573H6.75684V6.74011H33.3421ZM11.0306 15.2029H29.0683V11.0033H11.0306V15.2029Z" fill="white"/>
<path fill-rule="evenodd" clip-rule="evenodd" d="M30.6703 33.2599H26.3122L25.3262 30.0338H17.4147V33.2599H13.0566V21.1735H33.3423V30.0338H29.6842L29.9371 30.8619L30.6958 33.2599H30.6703ZM28.9843 24.1982H17.4147V27.009H28.9843V24.1982Z" fill="white"/>
<path d="M44.4873 15.6033V5.17834H48.429C49.1238 5.17834 49.6526 5.21147 50.0179 5.27773C50.5314 5.36182 50.9605 5.52491 51.308 5.76444C51.6554 6.00398 51.9338 6.34035 52.1459 6.77101C52.3579 7.20166 52.4626 7.67564 52.4626 8.19293C52.4626 9.07973 52.1791 9.82892 51.6145 10.443C51.05 11.0572 50.0281 11.363 48.549 11.363H45.8693V15.6007H44.4873V15.6033ZM45.8693 10.1347H48.572C49.4661 10.1347 50.0997 9.96907 50.4752 9.6378C50.8507 9.30652 51.0397 8.84019 51.0397 8.23625C51.0397 7.8005 50.9299 7.42591 50.7076 7.11502C50.4854 6.80413 50.1967 6.60027 49.834 6.50089C49.6015 6.43973 49.1698 6.40915 48.5439 6.40915H45.8693V10.1347Z" fill="#1A1A18"/>
<path d="M54.085 15.6033V5.17834H55.3673V15.6033H54.085Z" fill="#1A1A18"/>
<path d="M62.4383 14.6706C61.9631 15.0732 61.5058 15.3586 61.0665 15.5243C60.6271 15.6899 60.1545 15.774 59.6512 15.774C58.8185 15.774 58.1798 15.5701 57.7328 15.165C57.2857 14.7598 57.0635 14.2425 57.0635 13.6105C57.0635 13.241 57.1478 12.9021 57.3164 12.5963C57.485 12.2905 57.7072 12.0459 57.9806 11.8599C58.2539 11.6739 58.5604 11.5363 58.9028 11.4394C59.1557 11.3732 59.5337 11.3095 60.0446 11.2483C61.0818 11.126 61.843 10.9782 62.3335 10.8074C62.3386 10.6316 62.3412 10.5195 62.3412 10.4736C62.3412 9.95124 62.2211 9.58429 61.9784 9.37023C61.6514 9.08228 61.1635 8.93703 60.5172 8.93703C59.9144 8.93703 59.4673 9.04151 59.1812 9.25301C58.8925 9.46452 58.6805 9.83656 58.5426 10.3742L57.2883 10.2035C57.4032 9.66838 57.5897 9.23517 57.8503 8.90645C58.1108 8.57772 58.4889 8.3229 58.9845 8.14452C59.4775 7.96614 60.0523 7.87695 60.7037 7.87695C61.3551 7.87695 61.8763 7.9534 62.2799 8.10375C62.6835 8.25664 62.9798 8.44522 63.1714 8.67711C63.3604 8.90645 63.4958 9.19695 63.5699 9.54861C63.6133 9.76776 63.6338 10.1602 63.6338 10.7285V12.4358C63.6338 13.6258 63.6619 14.3776 63.7155 14.6935C63.7692 15.0095 63.879 15.3102 64.04 15.6007H62.6988C62.566 15.3357 62.4791 15.0248 62.4434 14.6681L62.4383 14.6706ZM62.331 11.8115C61.866 12 61.1661 12.1631 60.2362 12.2956C59.7074 12.3721 59.3345 12.4562 59.1173 12.5505C58.8976 12.6447 58.729 12.7849 58.6115 12.9658C58.4915 13.1493 58.4327 13.3506 58.4327 13.5749C58.4327 13.9163 58.563 14.2017 58.821 14.4285C59.079 14.6553 59.4596 14.77 59.9578 14.77C60.4559 14.77 60.8927 14.663 61.2759 14.4464C61.6617 14.2298 61.9427 13.9367 62.124 13.5621C62.262 13.2742 62.331 12.8461 62.331 12.2829V11.814V11.8115Z" fill="#1A1A18"/>
<path d="M68.4775 14.4591L68.664 15.5905C68.3038 15.667 67.9794 15.7052 67.6933 15.7052C67.2283 15.7052 66.8656 15.6313 66.6101 15.4835C66.3547 15.3357 66.1733 15.1446 66.0686 14.9051C65.9638 14.6655 65.9127 14.161 65.9127 13.3939V9.04916H64.9727V8.05279H65.9127V6.18237L67.19 5.41534V8.05279H68.4801V9.04916H67.19V13.4653C67.19 13.8297 67.213 14.0641 67.259 14.1686C67.305 14.2731 67.3765 14.3572 67.4812 14.4183C67.5834 14.4795 67.729 14.5101 67.9206 14.5101C68.0637 14.5101 68.2501 14.4948 68.4826 14.4591H68.4775Z" fill="#1A1A18"/>
<path d="M70.6157 15.6033V9.04663H69.4814V8.05026H70.6157V7.24756C70.6157 6.74046 70.6616 6.36332 70.7511 6.11614C70.8737 5.78486 71.0908 5.51475 71.4025 5.30834C71.7141 5.10193 72.151 5 72.7104 5C73.0706 5 73.4717 5.04332 73.9085 5.12741L73.7169 6.24355C73.4512 6.19513 73.1983 6.1722 72.9607 6.1722C72.5699 6.1722 72.2966 6.25629 72.1331 6.42193C71.9721 6.58756 71.8904 6.89845 71.8904 7.35459V8.05026H73.3669V9.04663H71.8904V15.6033H70.6131H70.6157Z" fill="#1A1A18"/>
<path d="M74.0309 11.8268C74.0309 10.4278 74.4217 9.39318 75.2009 8.71789C75.8523 8.15983 76.6467 7.87952 77.5817 7.87952C78.6214 7.87952 79.4721 8.22098 80.1337 8.89882C80.7953 9.5792 81.1249 10.5195 81.1249 11.7172C81.1249 12.6881 80.9793 13.4526 80.6855 14.0106C80.3943 14.5687 79.9677 14.9993 79.4082 15.3077C78.8488 15.616 78.2408 15.7689 77.5791 15.7689C76.519 15.7689 75.6632 15.43 75.0093 14.7522C74.3553 14.0743 74.0283 13.0983 74.0283 11.8217L74.0309 11.8268ZM75.349 11.8268C75.349 12.7951 75.561 13.5188 75.9826 14.0004C76.4066 14.4821 76.938 14.7216 77.5791 14.7216C78.2203 14.7216 78.7466 14.4795 79.1681 13.9953C79.5921 13.5112 79.8016 12.7747 79.8016 11.7834C79.8016 10.8508 79.5896 10.1424 79.163 9.66075C78.7364 9.17913 78.2076 8.93959 77.5766 8.93959C76.9456 8.93959 76.4015 9.17913 75.98 9.6582C75.5559 10.1373 75.3465 10.861 75.3465 11.8268H75.349Z" fill="#1A1A18"/>
<path d="M82.834 15.6033V8.05025H83.9886V9.19442C84.2824 8.65928 84.5558 8.30508 84.8061 8.13434C85.0564 7.96361 85.3298 7.87952 85.6287 7.87952C86.0604 7.87952 86.4998 8.01712 86.9468 8.29233L86.5049 9.47982C86.1907 9.2938 85.8765 9.20206 85.5648 9.20206C85.2838 9.20206 85.0334 9.28615 84.8086 9.45434C84.5838 9.62252 84.4255 9.85696 84.3309 10.1551C84.1879 10.6112 84.1164 11.1082 84.1164 11.6484V15.6033H82.834Z" fill="#1A1A18"/>
<path d="M88.1113 15.6033V8.05025H89.2583V9.11032C89.4959 8.74083 89.8127 8.44268 90.2061 8.21843C90.5995 7.99419 91.0491 7.87952 91.5549 7.87952C92.1143 7.87952 92.5741 7.99674 92.9343 8.22863C93.292 8.46052 93.5474 8.7867 93.693 9.20206C94.2908 8.32036 95.0699 7.87952 96.0304 7.87952C96.7815 7.87952 97.3588 8.08593 97.7624 8.50129C98.166 8.91666 98.3679 9.55627 98.3679 10.4176V15.6007H97.0906V10.8431C97.0906 10.3309 97.0497 9.96144 96.9654 9.7372C96.8811 9.51295 96.7304 9.32948 96.5132 9.19187C96.2936 9.05426 96.0381 8.98546 95.7443 8.98546C95.213 8.98546 94.771 9.16129 94.4185 9.5155C94.066 9.86971 93.8923 10.4329 93.8923 11.2126V15.6007H92.6099V10.6928C92.6099 10.1245 92.5052 9.69642 92.2957 9.41357C92.0862 9.12816 91.7439 8.98801 91.2688 8.98801C90.9086 8.98801 90.5739 9.08229 90.2674 9.27341C89.9608 9.46198 89.7386 9.73974 89.6006 10.1067C89.4627 10.4711 89.3937 10.9986 89.3937 11.6866V15.6058H88.1113V15.6033Z" fill="#1A1A18"/>
<path d="M106.42 15.6033H105.229V5.17834H106.512V8.8988C107.053 8.22096 107.746 7.88205 108.586 7.88205C109.051 7.88205 109.493 7.97633 109.909 8.16235C110.326 8.34838 110.668 8.6134 110.936 8.95231C111.205 9.29123 111.414 9.7015 111.567 10.178C111.721 10.6571 111.795 11.1693 111.795 11.7146C111.795 13.0091 111.473 14.0081 110.832 14.7165C110.19 15.4249 109.419 15.7765 108.522 15.7765C107.626 15.7765 106.928 15.4045 106.42 14.6604V15.6058V15.6033ZM106.405 11.7707C106.405 12.6753 106.527 13.3302 106.775 13.7328C107.179 14.3928 107.725 14.7216 108.415 14.7216C108.977 14.7216 109.46 14.4795 109.869 13.9928C110.277 13.5061 110.482 12.7823 110.482 11.8191C110.482 10.8559 110.285 10.1041 109.894 9.63525C109.503 9.16637 109.028 8.93193 108.471 8.93193C107.914 8.93193 107.426 9.17401 107.018 9.66073C106.609 10.1474 106.405 10.8508 106.405 11.7681V11.7707Z" fill="#1A1A18"/>
<path d="M113.167 18.5109L113.024 17.3081C113.305 17.3846 113.55 17.4228 113.757 17.4228C114.043 17.4228 114.271 17.3744 114.442 17.2801C114.613 17.1858 114.753 17.0533 114.863 16.8826C114.945 16.7551 115.075 16.4366 115.254 15.9295C115.277 15.8582 115.315 15.7537 115.369 15.6161L112.495 8.05029H113.877L115.453 12.4231C115.658 12.9786 115.842 13.5596 116.003 14.1738C116.151 13.5851 116.324 13.0118 116.531 12.4537L118.148 8.05284H119.431L116.552 15.7333C116.243 16.564 116.003 17.1348 115.831 17.4483C115.604 17.8713 115.341 18.1796 115.047 18.3758C114.753 18.5721 114.401 18.6714 113.992 18.6714C113.744 18.6714 113.468 18.6179 113.164 18.516L113.167 18.5109Z" fill="#1A1A18"/>
<path d="M54.8495 23.2168V34.3094H52.2592L47.3493 28.3974V34.3094H44.2686V23.2168H46.8589L51.7687 29.1288V23.2168H54.8495Z" fill="#1A1A18"/>
<path d="M66.2475 31.886V34.3094H57.3193V23.2168H66.0406V25.6402H60.4333V27.5106H65.3738V29.855H60.4333V31.8834H66.2475V31.886Z" fill="#1A1A18"/>
<path d="M85.5625 23.2168L81.9555 34.3094H78.5886L76.4607 27.559L74.2357 34.3094H70.8688L67.2617 23.2168H70.5034L72.7438 30.301L75.094 23.2168H77.9857L80.2261 30.3647L82.5609 23.2168H85.5625Z" fill="#1A1A18"/>
<path d="M88.0807 34.1998C87.2326 33.9781 86.5454 33.6825 86.0166 33.313L87.0486 30.9992C87.5468 31.3279 88.1241 31.5904 88.7806 31.7917C89.4371 31.993 90.0834 32.0924 90.7195 32.0924C91.9278 32.0924 92.5307 31.7917 92.5307 31.1903C92.5307 30.8743 92.3596 30.6373 92.0147 30.4844C91.6698 30.3316 91.118 30.171 90.3542 30.0003C89.5163 29.8219 88.8189 29.6282 88.2569 29.4218C87.6949 29.2154 87.2147 28.8867 86.8111 28.4306C86.4074 27.977 86.2082 27.3628 86.2082 26.5933C86.2082 25.918 86.3947 25.3064 86.7651 24.7636C87.1355 24.2208 87.6898 23.7902 88.4255 23.4716C89.1613 23.1557 90.0656 22.9951 91.1334 22.9951C91.864 22.9951 92.5844 23.0767 93.2945 23.2397C94.0047 23.4028 94.628 23.6449 95.1696 23.9609L94.2014 26.29C93.1412 25.7192 92.1143 25.4338 91.1206 25.4338C90.4947 25.4338 90.04 25.5255 89.7539 25.7116C89.4678 25.8976 89.3247 26.1371 89.3247 26.4327C89.3247 26.7283 89.4933 26.95 89.8331 27.0978C90.1729 27.2456 90.717 27.3985 91.4706 27.5565C92.3187 27.7374 93.0186 27.9285 93.5755 28.135C94.1324 28.3414 94.6127 28.6675 95.0214 29.1186C95.4301 29.5671 95.6319 30.1787 95.6319 30.9482C95.6319 31.6133 95.4455 32.2147 95.075 32.7549C94.7046 33.2952 94.1477 33.7233 93.4069 34.0469C92.6661 34.368 91.7643 34.5311 90.7068 34.5311C89.8076 34.5311 88.9313 34.419 88.0858 34.1973L88.0807 34.1998Z" fill="#1A1A18"/>
<path d="M102.221 31.3636H100.504V34.3119H97.3594V23.2194H102.443C103.449 23.2194 104.323 23.385 105.064 23.7188C105.805 24.0526 106.377 24.5266 106.781 25.1458C107.184 25.7625 107.383 26.4913 107.383 27.3246C107.383 28.1579 107.194 28.8281 106.819 29.4244C106.443 30.0207 105.904 30.4895 105.207 30.8259L107.606 34.3119H104.239L102.221 31.3636ZM103.715 26.1193C103.386 25.8339 102.9 25.6912 102.254 25.6912H100.507V28.9402H102.254C102.9 28.9402 103.388 28.8 103.715 28.5197C104.045 28.2394 104.208 27.8419 104.208 27.3246C104.208 26.8073 104.045 26.4047 103.715 26.1193Z" fill="#1A1A18"/>
<path d="M118.258 31.886V34.3094H109.33V23.2168H118.051V25.6402H112.444V27.5106H117.385V29.855H112.444V31.8834H118.258V31.886Z" fill="#1A1A18"/>
<path d="M127.95 32.1561H123.247L122.374 34.3119H119.165L124.075 23.2194H127.174L132.099 34.3119H128.826L127.953 32.1561H127.95ZM127.028 29.8423L125.597 26.2926L124.167 29.8423H127.025H127.028Z" fill="#1A1A18"/>
<path d="M135 33.7946C134.073 33.3028 133.345 32.6199 132.816 31.7433C132.287 30.8667 132.021 29.8729 132.021 28.7644C132.021 27.6559 132.287 26.6621 132.816 25.7855C133.345 24.9089 134.073 24.2234 135 23.7341C135.927 23.2423 136.972 22.9977 138.137 22.9977C139.154 22.9977 140.068 23.1786 140.886 23.5354C141.701 23.8947 142.38 24.412 142.919 25.0873L140.916 26.894C140.196 26.0276 139.322 25.5944 138.295 25.5944C137.693 25.5944 137.154 25.7269 136.684 25.9893C136.211 26.2544 135.846 26.6264 135.588 27.1055C135.327 27.5871 135.199 28.1375 135.199 28.7618C135.199 29.3862 135.33 29.9366 135.588 30.4182C135.848 30.8998 136.214 31.2719 136.684 31.5343C137.154 31.7994 137.693 31.9293 138.295 31.9293C139.322 31.9293 140.196 31.4961 140.916 30.6297L142.919 32.4364C142.38 33.1117 141.701 33.6316 140.886 33.9883C140.071 34.3476 139.154 34.5285 138.137 34.5285C136.972 34.5285 135.925 34.2839 135 33.7921V33.7946Z" fill="#1A1A18"/>
<path d="M155 23.2168V34.3094H151.856V29.9824H147.567V34.3094H144.422V23.2168H147.567V27.3832H151.856V23.2168H155Z" fill="#1A1A18"/>
</g>
<defs>
<clipPath id="clip0_0_7460">
<rect width="155" height="40" fill="white"/>
</clipPath>
</defs>
</svg>
