<svg width="14" height="10" viewBox="0 0 14 10" fill="none" xmlns="http://www.w3.org/2000/svg">
<path fill-rule="evenodd" clip-rule="evenodd" d="M2.25 1C2.25 0.723858 2.47386 0.5 2.75 0.5H11.25C11.5261 0.5 11.75 0.723858 11.75 1C11.75 1.27614 11.5261 1.5 11.25 1.5H2.75C2.47386 1.5 2.25 1.27614 2.25 1ZM4.25 9C4.25 8.72386 4.47386 8.5 4.75 8.5H9.25C9.52614 8.5 9.75 8.72386 9.75 9C9.75 9.27614 9.52614 9.5 9.25 9.5H4.75C4.47386 9.5 4.25 9.27614 4.25 9ZM0.75 4.5C0.473858 4.5 0.25 4.72386 0.25 5C0.25 5.27614 0.473858 5.5 0.75 5.5H13.25C13.5261 5.5 13.75 5.27614 13.75 5C13.75 4.72386 13.5261 4.5 13.25 4.5H0.75Z" fill="#101828"/>
</svg>
