<svg width="12" height="14" viewBox="0 0 12 14" fill="none" xmlns="http://www.w3.org/2000/svg">
<path fill-rule="evenodd" clip-rule="evenodd" d="M4.99996 1C4.99996 0.447715 5.44768 0 5.99996 0C6.55224 0 6.99996 0.447715 6.99996 1V1.11162C7.41848 1.20664 7.81511 1.36001 8.18057 1.5628C8.42202 1.69679 8.50915 2.00114 8.37516 2.2426C8.24118 2.48406 7.93682 2.57119 7.69536 2.4372C7.19356 2.15875 6.61605 2 5.99996 2C4.06696 2 2.49996 3.567 2.49996 5.5V7.511L2.49996 7.54132C2.5 7.77372 2.50002 7.93446 2.4798 8.09275C2.43308 8.45841 2.30607 8.80922 2.10787 9.12005C2.02207 9.25459 1.91915 9.37806 1.77035 9.55656L1.77034 9.55657L1.75093 9.57987C1.53553 9.83834 1.38767 10.0161 1.28496 10.1543C1.23471 10.222 1.20196 10.2714 1.18065 10.3084C1.1703 10.3264 1.16375 10.3395 1.15969 10.3486C1.15568 10.3576 1.1545 10.3617 1.15452 10.3617C1.08527 10.6022 1.20455 10.8569 1.43368 10.9577C1.43361 10.9576 1.43752 10.9594 1.447 10.962C1.45658 10.9647 1.47089 10.9681 1.49132 10.9717C1.53341 10.979 1.59232 10.9855 1.67646 10.9902C1.84843 10.9998 2.07963 11 2.41608 11H9.58384C9.92029 11 10.1515 10.9998 10.3235 10.9902C10.4076 10.9855 10.4665 10.979 10.5086 10.9717C10.529 10.9681 10.5433 10.9647 10.5529 10.962C10.5624 10.9594 10.5663 10.9576 10.5662 10.9577C10.7954 10.8569 10.9147 10.6022 10.8454 10.3617C10.8454 10.3617 10.8442 10.3576 10.8402 10.3486C10.8362 10.3395 10.8296 10.3264 10.8193 10.3084C10.798 10.2714 10.7652 10.222 10.715 10.1543C10.6122 10.0161 10.4644 9.83834 10.249 9.57987L10.2296 9.55659C10.0808 9.37807 9.97785 9.2546 9.89205 9.12005C9.69385 8.80922 9.56684 8.45841 9.52012 8.09275C9.4999 7.93447 9.49992 7.77374 9.49996 7.54137V7.54132L9.49996 7.511V7C9.49996 6.72386 9.72382 6.5 9.99996 6.5C10.2761 6.5 10.5 6.72386 10.5 7V7.511C10.5 7.78495 10.5009 7.87864 10.5121 7.96601C10.5401 8.18541 10.6163 8.39589 10.7352 8.58239C10.7826 8.65665 10.8418 8.72922 11.0172 8.93968L11.027 8.95139C11.2302 9.19527 11.3963 9.39455 11.5177 9.55803C11.6368 9.7183 11.751 9.89265 11.8064 10.085C12.0141 10.8066 11.6563 11.5707 10.9689 11.873C10.7857 11.9536 10.5786 11.9775 10.3793 11.9886C10.176 12 9.91662 12 9.59922 12H9.59917H9.58384H2.41608H2.40075H2.4007C2.0833 12 1.82394 12 1.62064 11.9886C1.4213 11.9775 1.21424 11.9536 1.03103 11.873C0.343659 11.5707 -0.0142066 10.8066 0.193554 10.085C0.248932 9.89265 0.36315 9.7183 0.482205 9.55803C0.60362 9.39458 0.769664 9.19532 0.972864 8.95149L0.972894 8.95145L0.982704 8.93968C1.15809 8.72922 1.21735 8.65665 1.2647 8.58239C1.38362 8.39589 1.45983 8.18541 1.48786 7.96601C1.49903 7.87864 1.49996 7.78495 1.49996 7.511V5.5C1.49996 3.35841 2.99597 1.56624 4.99996 1.11151V1ZM5.99996 14C6.82839 14 7.49996 13.3284 7.49996 12.5H4.49996C4.49996 13.3284 5.17153 14 5.99996 14Z" fill="#344054"/>
</svg>
